# xmcd CD database file
#
# Track frame offsets:
#	156
#	19984
#	37950
#	54635
#	66453
#	82436
#	98864
#	113590
#	131467
#	147728
#	161746
#	184241
#
# Disc length: 2804 seconds
#
# Revision: 2
# Processed by: cddbd v1.4PL0 Copyright (c) Steve Scherf et al.
# Submitted via: CDex 1.40Release
#
DISCID=b40af20c
DTITLE=MacVitties - Love Letters
DYEAR=2002
DGENRE=Folk
TTITLE0=Without You.mp3
TTITLE1=Anna.mp3
TTITLE2=Love Letter.mp3
TTITLE3=Theodorabee.mp3
TTITLE4=Summer Sublime.mp3
TTITLE5=Inside Out.mp3
TTITLE6=Go.mp3
TTITLE7=Beautiful Girl.mp3
TTITLE8=In the Middle.mp3
TTITLE9=Dancing Girl.mp3
TTITLE10=Proximity.mp3
TTITLE11=By My Side.mp3
EXTD=YEAR: 2002 ID3G: 80
EXTT0=
EXTT1=
EXTT2=
EXTT3=
EXTT4=
EXTT5=
EXTT6=
EXTT7=
EXTT8=
EXTT9=
EXTT10=
EXTT11=
PLAYORDER=
